<?xml version="1.0" encoding="UTF-8"?>
<svg id="Layer_1" data-name="Layer 1" xmlns="http://www.w3.org/2000/svg" viewBox="0 0 1001.28 860.79">
  <defs>
    <style>
      .cls-1 {
        fill: #fff;
      }
    </style>
  </defs>
  <path class="cls-1" d="M150.7,214.72v466.11h-31.14c-51.7,0-93.61-49.52-93.61-110.61V214.72h124.76Z"/>
  <g>
    <path class="cls-1" d="M24.14,128.88c-4.31,0-13.44-.13-17.66,.04-3,.12-5.2-.84-6.49-3.74v-2.69c1.28-2.9,3.48-3.88,6.49-3.74,3.75,.18,12.41,.04,16.16,.04h1.5c0-3.49,0-26.87,0-30.24-4.31,0-13.44-.13-17.66,.04-3,.12-5.2-.84-6.49-3.74v-2.69c1.28-2.9,3.48-3.88,6.49-3.74,3.75,.18,12.41,.04,16.16,.04,.51,0,1.02,0,1.5,0,0-3.49,.08-25.57,.09-28.14,.01-7.54,4.77-12.5,12-12.51,2.51,0,23.76-.09,26.99-.09,0-4.5,.13-13.08-.04-17.48-.12-3.13,.8-5.42,3.59-6.76h2.58c2.79,1.34,3.72,3.64,3.59,6.76-.17,3.96-.04,12.12-.04,16.09,0,.48,.06,.95,.09,1.39,3.25,0,25.68,0,28.91,0,0-4.5,.13-13.08-.04-17.48-.12-3.13,.8-5.42,3.59-6.76h2.58c2.79,1.34,3.72,3.64,3.59,6.76-.17,3.96-.04,12.12-.04,16.09,0,.48,.06,.95,.09,1.39,3.25,0,24.3,.09,26.76,.09,7.45,0,12.13,4.91,12.14,12.71,0,2.56,.08,24.56,.08,27.94,.59,0,1.12,0,1.64,0,4.19,0,13.28-.02,17.46,0,2.88,.02,5.01,2.15,5.04,4.97,.03,2.88-2.12,5.06-5.09,5.09-3.11,.03-11.13,0-14.24,0-1.59,0-3.19,0-4.78,0,0,3.47-.02,26.89-.02,30.24,4.7,0,14.21-.01,18.82,0,3.13,0,5.31,2.09,5.31,5.03,0,2.94-2.17,5.03-5.3,5.04-4.14,.02-13.17,0-17.3,0-.51,0-1.03,.05-1.55,.07,0,3.39-.04,26.19-.1,29.14-.1,4.91-3.15,9.26-7.64,10.75-1.4,.46-28.09,.79-31.34,.79,0,4.96,.02,13.98,0,18.84-.02,3.12-2.07,5.37-4.82,5.37-2.76,0-4.81-2.25-4.83-5.36-.02-4.37,0-12.89,0-17.26,0-.54-.05-1.07-.07-1.61-3.25,0-25.72,.04-28.93,.04,0,.73,0,1.34,0,1.95,0,4.37,.04,12.9-.02,17.26-.04,2.65-1.94,4.72-4.38,4.96-2.35,.24-4.56-1.42-5.12-3.91-.15-.64-.14-1.33-.14-2-.01-4.69,0-13.54,0-18.29-3.28,0-24.49-.1-26.96-.1-7.26-.01-12.02-4.96-12.04-12.49,0-2.62-.09-24.8-.09-28.16ZM87.39,57.99c-12.78,0-25.55,0-38.33,0-3.56,0-5.49,1.99-5.49,5.68,0,26.64,0,53.29,0,79.93,0,3.8,1.9,5.77,5.57,5.77,25.5,0,51,0,76.5,0,3.67,0,5.57-1.97,5.57-5.77,0-26.59,0-53.18,0-79.76,0-3.91-1.88-5.85-5.66-5.85-12.72,0-25.45,0-38.17,0Z"/>
    <path class="cls-1" d="M53.3,139.18V68.16H121.42v71.02H53.3Z"/>
  </g>
  <path class="cls-1" d="M1001.28,612.25c-51.76,43.29-105.24,69.5-136.65,69.5-10.06,0-17.85-2.7-22.61-8.37,0,0-157.83-185.84-180.04-217.75,54.25,27.62,181.4,109.58,210.98,129.66-23.13-25.48-149.62-137.94-181.1-167.43,209.53,38.89,309.42,194.39,309.42,194.39Z"/>
  <path class="cls-1" d="M818.01,133.49l-96.09,77.45c-4.73,3.81-11.64,3.42-15.81-1-23.7-25.21-53.79-43.98-87.55-53.53-5.55-1.57-9.21-6.83-8.6-12.56l13.53-126.07c.74-6.9,7.29-11.71,14.07-10.23,71.68,15.64,134.98,54.76,182.01,109.2,4.32,5,3.58,12.6-1.57,16.75Z"/>
  <path class="cls-1" d="M592.66,13.27l-13.46,125.57c-.64,6-5.74,10.48-11.77,10.47-.04,0-.07,0-.11,0-36.23,0-70.11,10.28-99.09,28.19-5,3.09-11.52,1.92-15.21-2.66l-78.44-97.29c-4.23-5.24-3.21-13.01,2.29-16.89C431.11,22.38,496.69,0,567.33,0c4.78,0,9.54,.1,14.27,.31,6.73,.29,11.78,6.27,11.07,12.97Z"/>
  <path class="cls-1" d="M428.82,209.65c-23.16,24.52-40.26,55.18-48.83,89.36-1.33,5.32-6.31,8.88-11.76,8.29l-122.94-13.19c-6.32-.68-10.77-6.61-9.58-12.85,13.77-72.14,49.03-136.29,98.6-185.04,4.59-4.51,12.09-4.04,16.13,.97l79.02,98.03c3.45,4.28,3.13,10.42-.65,14.42Z"/>
  <path class="cls-1" d="M395.99,461.11l-97.57,78.67c-5.1,4.11-12.68,2.86-16.12-2.71-33.56-54.22-53-118.68-53-187.83,0-4.64,.09-9.27,.27-13.87,.24-6.29,5.82-11.04,12.08-10.37l122.45,13.14c5.6,.6,9.75,5.36,9.75,10.99,0,.03,0,.07,0,.1,0,35.66,9.02,69.12,24.85,98.09,2.54,4.65,1.44,10.44-2.69,13.77Z"/>
  <path class="cls-1" d="M524.72,554.63l-13.53,126.12c-.74,6.88-7.27,11.69-14.04,10.21-71.7-15.64-135.02-54.74-182.06-109.2-4.31-4.99-3.57-12.58,1.56-16.71l96.12-77.5c4.72-3.81,11.62-3.42,15.78,1,23.7,25.22,53.8,44,87.59,53.55,5.54,1.56,9.19,6.82,8.58,12.54Z"/>
  <path class="cls-1" d="M760.1,620.96c4.22,5.23,3.2,12.98-2.29,16.86-54.23,38.3-119.84,60.68-190.49,60.68-4.78,0-9.53-.1-14.26-.3-6.72-.29-11.77-6.25-11.05-12.94l13.46-125.63c.64-5.99,5.72-10.46,11.75-10.45,.04,0,.07,0,.11,0,36.24,0,70.14-10.29,99.13-28.2,4.99-3.08,11.5-1.91,15.18,2.65l78.47,97.33Z"/>
  <ellipse class="cls-1" cx="567.34" cy="349.25" rx="51.36" ry="53.07"/>
  <path class="cls-1" d="M753.89,402.51h0c4.53-16.95,6.95-34.82,6.95-53.26,0-35.41-8.9-68.66-24.52-97.49-2.71-5.01-1.54-11.22,2.89-14.8l96.32-77.65c5.49-4.42,13.65-3.07,17.32,2.95,17.24,28.2,35.03,66.6,44.91,112.81,17.96,84.05-62.65,155.53-143.87,127.44Z"/>
  <g>
    <path class="cls-1" d="M133.42,839.19c-5.41,13.07-18.17,21.59-32.32,21.59h-35.69c-19.32,0-34.98-15.66-34.98-34.98s15.66-34.98,34.98-34.98h35.69c9.28-.03,18.19,3.66,24.73,10.24,10.01,10,13,25.05,7.58,38.12Zm-23.34-17.8c0-7.19-5.83-13.01-13.01-13.02h-27.61c-7.19,.01-13.01,5.84-13.01,13.02v4.43c.01,9.63,7.81,17.43,17.44,17.44h18.76c9.63-.01,17.43-7.81,17.44-17.44v-4.43Z"/>
    <path class="cls-1" d="M248.82,795.62c2.75,2.74,4.29,6.47,4.28,10.35v9.26c0,5.7-2.48,19.56-29.07,19.56h-50.57v25.49h-24.99v-68.95h90c3.88,0,7.61,1.54,10.35,4.28Zm-21.21,16.32c0-1.97-1.6-3.57-3.57-3.57h-50.07v7.14h50.07c1.97,0,3.57-1.6,3.57-3.57Z"/>
    <path class="cls-1" d="M365.36,790.83v17.53h-39.83v52.42h-26v-52.42h-39.82v-17.53h105.65Z"/>
    <path class="cls-1" d="M375.93,860.79v-69.95h26.01v69.95h-26.01Z"/>
    <path class="cls-1" d="M603.49,808.8v51.99h-26.01v-41.15c0-6.22-5.04-11.27-11.27-11.27h-42.37v52.42h-26.19v-41.15c0-6.22-5.05-11.27-11.27-11.27h-42.37v52.42h-26v-69.96h83.61c5.49,.15,21.68,1.56,21.68,12.88v-12.88h62.21c9.92,.01,17.96,8.05,17.98,17.98Z"/>
    <path class="cls-1" d="M619.1,860.79v-69.95h26.01v69.95h-26.01Z"/>
    <path class="cls-1" d="M702.72,843.26h57.61v17.53h-105.65v-.99l25.17-22.62,32.08-28.81h-46.96v-17.55h96.1l-58.35,52.43Z"/>
    <path class="cls-1" d="M797.21,808.37v6.28h79.64v20.65h-105.64v-44.46h105.64v17.53h-79.64Zm-26,52.42v-17.53h105.64v17.53h-105.64Z"/>
    <path class="cls-1" d="M995.43,860.79h-27.94l-17.44-25.83h-60.7v-20.31h76.51c1.73,0,3.14-1.41,3.14-3.14s-1.41-3.14-3.14-3.14h-76.51v-17.53h94.69c6.05,0,10.96,4.91,10.96,10.96v22.2c0,6.05-4.91,10.95-10.96,10.96h-5.71l17.1,25.83Z"/>
  </g>
</svg>